{
	"asset":{
		"generator":"Khronos glTF Blender I/O v3.6.27",
		"version":"2.0"
	},
	"scene":0,
	"scenes":[
		{
			"name":"Scene",
			"nodes":[
				0
			]
		}
	],
	"nodes":[
		{
			"mesh":0,
			"name":"Aset_edible_vegetable_S_uhriag3va_LOD0",
			"scale":[
				7.3766326904296875,
				7.3766326904296875,
				7.3766326904296875
			],
			"translation":[
				-2.7177681922912598,
				5.792839050292969,
				-0.30915865302085876
			]
		}
	],
	"materials":[
		{
			"doubleSided":true,
			"name":"Red_Bell_uhriag3va",
			"normalTexture":{
				"index":0
			},
			"pbrMetallicRoughness":{
				"baseColorTexture":{
					"index":1
				},
				"metallicFactor":0,
				"metallicRoughnessTexture":{
					"index":2
				}
			}
		}
	],
	"meshes":[
		{
			"name":"Aset_edible_vegetable_S_uhriag3va_LOD0",
			"primitives":[
				{
					"attributes":{
						"POSITION":0,
						"NORMAL":1,
						"TEXCOORD_0":2
					},
					"indices":3,
					"material":0
				}
			]
		}
	],
	"textures":[
		{
			"sampler":0,
			"source":0
		},
		{
			"sampler":0,
			"source":1
		},
		{
			"sampler":0,
			"source":2
		}
	],
	"images":[
		{
			"mimeType":"image/jpeg",
			"name":"uhriag3va_4K_Normal_LOD0",
			"uri":"uhriag3va_4K_Normal_LOD0.jpg"
		},
		{
			"mimeType":"image/jpeg",
			"name":"uhriag3va_4K_Albedo",
			"uri":"uhriag3va_4K_Albedo.jpg"
		},
		{
			"mimeType":"image/png",
			"name":"uhriag3va_2K_Roughness",
			"uri":"uhriag3va_2K_Roughness.png"
		}
	],
	"accessors":[
		{
			"bufferView":0,
			"componentType":5126,
			"count":5121,
			"max":[
				0.06195932254195213,
				0.07008230686187744,
				0.059556227177381516
			],
			"min":[
				-0.06195932254195213,
				-0.07008230686187744,
				-0.05955623462796211
			],
			"type":"VEC3"
		},
		{
			"bufferView":1,
			"componentType":5126,
			"count":5121,
			"type":"VEC3"
		},
		{
			"bufferView":2,
			"componentType":5126,
			"count":5121,
			"type":"VEC2"
		},
		{
			"bufferView":3,
			"componentType":5123,
			"count":28200,
			"type":"SCALAR"
		}
	],
	"bufferViews":[
		{
			"buffer":0,
			"byteLength":61452,
			"byteOffset":0,
			"target":34962
		},
		{
			"buffer":0,
			"byteLength":61452,
			"byteOffset":61452,
			"target":34962
		},
		{
			"buffer":0,
			"byteLength":40968,
			"byteOffset":122904,
			"target":34962
		},
		{
			"buffer":0,
			"byteLength":56400,
			"byteOffset":163872,
			"target":34963
		}
	],
	"samplers":[
		{
			"magFilter":9729,
			"minFilter":9987
		}
	],
	"buffers":[
		{
			"byteLength":220272,
			"uri":"apple.bin"
		}
	]
}
