{
	"asset":{
		"generator":"Khronos glTF Blender I/O v3.6.27",
		"version":"2.0"
	},
	"scene":0,
	"scenes":[
		{
			"name":"Scene",
			"nodes":[
				0,
				1
			]
		}
	],
	"nodes":[
		{
			"mesh":0,
			"name":"Sphere.023"
		},
		{
			"mesh":1,
			"name":"Aset_street_props_S_ve2hddjga_00_LOD2.002"
		}
	],
	"materials":[
		{
			"doubleSided":true,
			"name":"strings.003",
			"pbrMetallicRoughness":{
				"baseColorFactor":[
					0.3675968647003174,
					0.6089420914649963,
					0.8000000715255737,
					1
				],
				"metallicFactor":0,
				"roughnessFactor":0
			}
		},
		{
			"doubleSided":true,
			"name":"Material.002",
			"pbrMetallicRoughness":{
				"baseColorFactor":[
					0.44797995686531067,
					0.44797995686531067,
					0.44797995686531067,
					1
				],
				"metallicFactor":0,
				"roughnessFactor":0.18702292442321777
			}
		},
		{
			"doubleSided":true,
			"name":"Trash_Bag_ve2hddjga.003",
			"normalTexture":{
				"index":0
			},
			"pbrMetallicRoughness":{
				"baseColorTexture":{
					"index":1
				},
				"metallicFactor":0,
				"metallicRoughnessTexture":{
					"index":2
				}
			}
		}
	],
	"meshes":[
		{
			"name":"Sphere.002",
			"primitives":[
				{
					"attributes":{
						"POSITION":0,
						"NORMAL":1,
						"TEXCOORD_0":2,
						"TEXCOORD_1":3
					},
					"indices":4,
					"material":0
				},
				{
					"attributes":{
						"POSITION":5,
						"NORMAL":6,
						"TEXCOORD_0":7,
						"TEXCOORD_1":8
					},
					"indices":9,
					"material":1
				}
			]
		},
		{
			"name":"Aset_street_props_S_ve2hddjga_00_LOD2.002",
			"primitives":[
				{
					"attributes":{
						"POSITION":10,
						"NORMAL":11,
						"TEXCOORD_0":12
					},
					"indices":13,
					"material":2
				}
			]
		}
	],
	"textures":[
		{
			"sampler":0,
			"source":0
		},
		{
			"sampler":0,
			"source":1
		},
		{
			"sampler":0,
			"source":2
		}
	],
	"images":[
		{
			"mimeType":"image/jpeg",
			"name":"ve2hddjga_2K_Normal_LOD2",
			"uri":"ve2hddjga_2K_Normal_LOD2.jpg"
		},
		{
			"mimeType":"image/jpeg",
			"name":"ve2hddjga_2K_Albedo",
			"uri":"ve2hddjga_2K_Albedo.jpg"
		},
		{
			"mimeType":"image/jpeg",
			"name":"ve2hddjga_2K_Roughness",
			"uri":"ve2hddjga_2K_Roughness.jpg"
		}
	],
	"accessors":[
		{
			"bufferView":0,
			"componentType":5126,
			"count":18305,
			"max":[
				0.10258923470973969,
				0.3793059289455414,
				0.16924622654914856
			],
			"min":[
				-0.14521849155426025,
				-0.17245188355445862,
				-0.13830748200416565
			],
			"type":"VEC3"
		},
		{
			"bufferView":1,
			"componentType":5126,
			"count":18305,
			"type":"VEC3"
		},
		{
			"bufferView":2,
			"componentType":5126,
			"count":18305,
			"type":"VEC2"
		},
		{
			"bufferView":3,
			"componentType":5126,
			"count":18305,
			"type":"VEC2"
		},
		{
			"bufferView":4,
			"componentType":5123,
			"count":107520,
			"type":"SCALAR"
		},
		{
			"bufferView":5,
			"componentType":5126,
			"count":39941,
			"max":[
				0.034345075488090515,
				0.22182321548461914,
				0.1031438410282135
			],
			"min":[
				-0.2403995841741562,
				-0.1731870472431183,
				-0.12460851669311523
			],
			"type":"VEC3"
		},
		{
			"bufferView":6,
			"componentType":5126,
			"count":39941,
			"type":"VEC3"
		},
		{
			"bufferView":7,
			"componentType":5126,
			"count":39941,
			"type":"VEC2"
		},
		{
			"bufferView":8,
			"componentType":5126,
			"count":39941,
			"type":"VEC2"
		},
		{
			"bufferView":9,
			"componentType":5123,
			"count":239589,
			"type":"SCALAR"
		},
		{
			"bufferView":10,
			"componentType":5126,
			"count":4126,
			"max":[
				0.2037089765071869,
				0.16609662771224976,
				0.14700859785079956
			],
			"min":[
				-0.1473148763179779,
				-0.22025364637374878,
				-0.1427953839302063
			],
			"type":"VEC3"
		},
		{
			"bufferView":11,
			"componentType":5126,
			"count":4126,
			"type":"VEC3"
		},
		{
			"bufferView":12,
			"componentType":5126,
			"count":4126,
			"type":"VEC2"
		},
		{
			"bufferView":13,
			"componentType":5123,
			"count":21336,
			"type":"SCALAR"
		}
	],
	"bufferViews":[
		{
			"buffer":0,
			"byteLength":219660,
			"byteOffset":0,
			"target":34962
		},
		{
			"buffer":0,
			"byteLength":219660,
			"byteOffset":219660,
			"target":34962
		},
		{
			"buffer":0,
			"byteLength":146440,
			"byteOffset":439320,
			"target":34962
		},
		{
			"buffer":0,
			"byteLength":146440,
			"byteOffset":585760,
			"target":34962
		},
		{
			"buffer":0,
			"byteLength":215040,
			"byteOffset":732200,
			"target":34963
		},
		{
			"buffer":0,
			"byteLength":479292,
			"byteOffset":947240,
			"target":34962
		},
		{
			"buffer":0,
			"byteLength":479292,
			"byteOffset":1426532,
			"target":34962
		},
		{
			"buffer":0,
			"byteLength":319528,
			"byteOffset":1905824,
			"target":34962
		},
		{
			"buffer":0,
			"byteLength":319528,
			"byteOffset":2225352,
			"target":34962
		},
		{
			"buffer":0,
			"byteLength":479178,
			"byteOffset":2544880,
			"target":34963
		},
		{
			"buffer":0,
			"byteLength":49512,
			"byteOffset":3024060,
			"target":34962
		},
		{
			"buffer":0,
			"byteLength":49512,
			"byteOffset":3073572,
			"target":34962
		},
		{
			"buffer":0,
			"byteLength":33008,
			"byteOffset":3123084,
			"target":34962
		},
		{
			"buffer":0,
			"byteLength":42672,
			"byteOffset":3156092,
			"target":34963
		}
	],
	"samplers":[
		{
			"magFilter":9729,
			"minFilter":9987
		}
	],
	"buffers":[
		{
			"byteLength":3198764,
			"uri":"04.bin"
		}
	]
}
