{
	"asset":{
		"generator":"Khronos glTF Blender I/O v3.6.27",
		"version":"2.0"
	},
	"extensionsUsed":[
		"KHR_materials_clearcoat",
		"KHR_materials_specular",
		"KHR_materials_ior"
	],
	"scene":0,
	"scenes":[
		{
			"name":"Scene",
			"nodes":[
				0
			]
		}
	],
	"nodes":[
		{
			"mesh":0,
			"name":"gltf_01"
		}
	],
	"materials":[
		{
			"doubleSided":true,
			"name":"Bolete_Mushrooms_pdvcB.001",
			"pbrMetallicRoughness":{
				"baseColorTexture":{
					"index":0
				},
				"metallicFactor":0,
				"metallicRoughnessTexture":{
					"index":1
				}
			}
		},
		{
			"doubleSided":true,
			"extensions":{
				"KHR_materials_clearcoat":{
					"clearcoatFactor":1,
					"clearcoatRoughnessFactor":0
				},
				"KHR_materials_specular":{
					"specularColorFactor":[
						0,
						0,
						0
					]
				},
				"KHR_materials_ior":{
					"ior":1.4500000476837158
				}
			},
			"name":"Mat.001",
			"pbrMetallicRoughness":{
				"baseColorFactor":[
					0.01564304158091545,
					0.01564304158091545,
					0.01564304158091545,
					1
				],
				"metallicFactor":0,
				"roughnessFactor":0
			}
		},
		{
			"doubleSided":true,
			"extensions":{
				"KHR_materials_clearcoat":{
					"clearcoatFactor":1,
					"clearcoatRoughnessFactor":0.029999999329447746
				},
				"KHR_materials_specular":{
					"specularColorFactor":[
						0,
						0,
						0
					]
				},
				"KHR_materials_ior":{
					"ior":1.4500000476837158
				}
			},
			"name":"RK_plastic_white.001",
			"pbrMetallicRoughness":{
				"baseColorFactor":[
					0.800000011920929,
					0.800000011920929,
					0.800000011920929,
					1
				],
				"metallicFactor":0
			}
		},
		{
			"doubleSided":true,
			"extensions":{
				"KHR_materials_clearcoat":{
					"clearcoatFactor":1,
					"clearcoatRoughnessFactor":0.29335877299308777
				},
				"KHR_materials_specular":{
					"specularColorFactor":[
						0,
						0,
						0
					]
				},
				"KHR_materials_ior":{
					"ior":1.4500000476837158
				}
			},
			"name":"RK_plastic_black_1.001",
			"pbrMetallicRoughness":{
				"baseColorFactor":[
					0.04501016438007355,
					0.04501016438007355,
					0.04501016438007355,
					1
				],
				"metallicFactor":0
			}
		},
		{
			"doubleSided":true,
			"extensions":{
				"KHR_materials_clearcoat":{
					"clearcoatFactor":1,
					"clearcoatRoughnessFactor":0.029999999329447746
				},
				"KHR_materials_specular":{
					"specularColorFactor":[
						0,
						0,
						0
					]
				},
				"KHR_materials_ior":{
					"ior":1.4500000476837158
				}
			},
			"name":"RK_plastic_black.001",
			"pbrMetallicRoughness":{
				"baseColorFactor":[
					0.019570669159293175,
					0.019570669159293175,
					0.019570669159293175,
					1
				],
				"metallicFactor":0
			}
		},
		{
			"doubleSided":true,
			"extensions":{
				"KHR_materials_specular":{
					"specularColorFactor":[
						0,
						0,
						0
					]
				},
				"KHR_materials_ior":{
					"ior":1.4500000476837158
				}
			},
			"name":"LL_Brushed_steel_dark.001",
			"pbrMetallicRoughness":{
				"baseColorFactor":[
					0.5289937853813171,
					0.5289937853813171,
					0.5289937853813171,
					1
				],
				"roughnessFactor":0.5572519302368164
			}
		},
		{
			"doubleSided":true,
			"extensions":{
				"KHR_materials_specular":{
					"specularColorFactor":[
						0,
						0,
						0
					]
				},
				"KHR_materials_ior":{
					"ior":1.4500000476837158
				}
			},
			"name":"rubber.001",
			"pbrMetallicRoughness":{
				"baseColorFactor":[
					0.1034877747297287,
					0.10822780430316925,
					0.12319738417863846,
					1
				],
				"metallicFactor":0
			}
		},
		{
			"doubleSided":true,
			"name":"Retopo_model_with_dog.002_Baked_Baked.001",
			"pbrMetallicRoughness":{
				"metallicFactor":0,
				"roughnessFactor":0
			}
		}
	],
	"meshes":[
		{
			"name":"Aset_debris__nature_T_pdvcB_01_LOD0.002",
			"primitives":[
				{
					"attributes":{
						"POSITION":0,
						"NORMAL":1,
						"TEXCOORD_0":2
					},
					"indices":3,
					"material":0
				},
				{
					"attributes":{
						"POSITION":4,
						"NORMAL":5,
						"TEXCOORD_0":6
					},
					"indices":7,
					"material":1
				},
				{
					"attributes":{
						"POSITION":8,
						"NORMAL":9,
						"TEXCOORD_0":10
					},
					"indices":11,
					"material":2
				},
				{
					"attributes":{
						"POSITION":12,
						"NORMAL":13,
						"TEXCOORD_0":14
					},
					"indices":15,
					"material":3
				},
				{
					"attributes":{
						"POSITION":16,
						"NORMAL":17,
						"TEXCOORD_0":18
					},
					"indices":19,
					"material":4
				},
				{
					"attributes":{
						"POSITION":20,
						"NORMAL":21,
						"TEXCOORD_0":22
					},
					"indices":23,
					"material":5
				},
				{
					"attributes":{
						"POSITION":24,
						"NORMAL":25,
						"TEXCOORD_0":26
					},
					"indices":27,
					"material":6
				},
				{
					"attributes":{
						"POSITION":28,
						"NORMAL":29,
						"TEXCOORD_0":30
					},
					"indices":31,
					"material":7
				}
			]
		}
	],
	"textures":[
		{
			"sampler":0,
			"source":0
		},
		{
			"sampler":0,
			"source":1
		}
	],
	"images":[
		{
			"mimeType":"image/jpeg",
			"name":"Sctr_mushroom_brown_T_pdvcB_2K_Albedo",
			"uri":"Sctr_mushroom_brown_T_pdvcB_2K_Albedo.jpg"
		},
		{
			"mimeType":"image/jpeg",
			"name":"Sctr_mushroom_brown_T_pdvcB_2K_Roughness",
			"uri":"Sctr_mushroom_brown_T_pdvcB_2K_Roughness.jpg"
		}
	],
	"accessors":[
		{
			"bufferView":0,
			"componentType":5126,
			"count":1480,
			"max":[
				-0.036612868309020996,
				0.0372980535030365,
				0.24122858047485352
			],
			"min":[
				-0.34487152099609375,
				-0.25131693482398987,
				-0.0592779777944088
			],
			"type":"VEC3"
		},
		{
			"bufferView":1,
			"componentType":5126,
			"count":1480,
			"type":"VEC3"
		},
		{
			"bufferView":2,
			"componentType":5126,
			"count":1480,
			"type":"VEC2"
		},
		{
			"bufferView":3,
			"componentType":5123,
			"count":7746,
			"type":"SCALAR"
		},
		{
			"bufferView":4,
			"componentType":5126,
			"count":4,
			"max":[
				0.1412135511636734,
				0.28398746252059937,
				0.08429670333862305
			],
			"min":[
				-0.15716178715229034,
				0.02167344093322754,
				-0.2905716300010681
			],
			"type":"VEC3"
		},
		{
			"bufferView":5,
			"componentType":5126,
			"count":4,
			"type":"VEC3"
		},
		{
			"bufferView":6,
			"componentType":5126,
			"count":4,
			"type":"VEC2"
		},
		{
			"bufferView":7,
			"componentType":5123,
			"count":6,
			"type":"SCALAR"
		},
		{
			"bufferView":8,
			"componentType":5126,
			"count":17096,
			"max":[
				0.11521241068840027,
				0.1535925269126892,
				0.21785196661949158
			],
			"min":[
				-0.3377569615840912,
				-0.13141551613807678,
				-0.27195051312446594
			],
			"type":"VEC3"
		},
		{
			"bufferView":9,
			"componentType":5126,
			"count":17096,
			"type":"VEC3"
		},
		{
			"bufferView":10,
			"componentType":5126,
			"count":17096,
			"type":"VEC2"
		},
		{
			"bufferView":11,
			"componentType":5123,
			"count":50781,
			"type":"SCALAR"
		},
		{
			"bufferView":12,
			"componentType":5126,
			"count":24264,
			"max":[
				0.1541057527065277,
				0.30093643069267273,
				0.2717508375644684
			],
			"min":[
				-0.3918040692806244,
				-0.1409519612789154,
				-0.3057425916194916
			],
			"type":"VEC3"
		},
		{
			"bufferView":13,
			"componentType":5126,
			"count":24264,
			"type":"VEC3"
		},
		{
			"bufferView":14,
			"componentType":5126,
			"count":24264,
			"type":"VEC2"
		},
		{
			"bufferView":15,
			"componentType":5123,
			"count":128928,
			"type":"SCALAR"
		},
		{
			"bufferView":16,
			"componentType":5126,
			"count":3240,
			"max":[
				0.08689484000205994,
				-0.01028849184513092,
				0.17825555801391602
			],
			"min":[
				-0.2858957350254059,
				-0.08320740610361099,
				-0.24135476350784302
			],
			"type":"VEC3"
		},
		{
			"bufferView":17,
			"componentType":5126,
			"count":3240,
			"type":"VEC3"
		},
		{
			"bufferView":18,
			"componentType":5126,
			"count":3240,
			"type":"VEC2"
		},
		{
			"bufferView":19,
			"componentType":5123,
			"count":7290,
			"type":"SCALAR"
		},
		{
			"bufferView":20,
			"componentType":5126,
			"count":7907,
			"max":[
				0.11603137850761414,
				-0.014419283717870712,
				0.15222066640853882
			],
			"min":[
				-0.2376728355884552,
				-0.049015969038009644,
				-0.27458468079566956
			],
			"type":"VEC3"
		},
		{
			"bufferView":21,
			"componentType":5126,
			"count":7907,
			"type":"VEC3"
		},
		{
			"bufferView":22,
			"componentType":5126,
			"count":7907,
			"type":"VEC2"
		},
		{
			"bufferView":23,
			"componentType":5123,
			"count":34944,
			"type":"SCALAR"
		},
		{
			"bufferView":24,
			"componentType":5126,
			"count":2897,
			"max":[
				0.10623140633106232,
				-0.02004360221326351,
				0.15130198001861572
			],
			"min":[
				-0.23654605448246002,
				-0.04830417037010193,
				-0.26693910360336304
			],
			"type":"VEC3"
		},
		{
			"bufferView":25,
			"componentType":5126,
			"count":2897,
			"type":"VEC3"
		},
		{
			"bufferView":26,
			"componentType":5126,
			"count":2897,
			"type":"VEC2"
		},
		{
			"bufferView":27,
			"componentType":5123,
			"count":14976,
			"type":"SCALAR"
		},
		{
			"bufferView":28,
			"componentType":5126,
			"count":93349,
			"max":[
				0.14398318529129028,
				0.3634025454521179,
				0.21182730793952942
			],
			"min":[
				-0.07209670543670654,
				-0.1375933140516281,
				-0.13061007857322693
			],
			"type":"VEC3"
		},
		{
			"bufferView":29,
			"componentType":5126,
			"count":93349,
			"type":"VEC3"
		},
		{
			"bufferView":30,
			"componentType":5126,
			"count":93349,
			"type":"VEC2"
		},
		{
			"bufferView":31,
			"componentType":5125,
			"count":488772,
			"type":"SCALAR"
		}
	],
	"bufferViews":[
		{
			"buffer":0,
			"byteLength":17760,
			"byteOffset":0,
			"target":34962
		},
		{
			"buffer":0,
			"byteLength":17760,
			"byteOffset":17760,
			"target":34962
		},
		{
			"buffer":0,
			"byteLength":11840,
			"byteOffset":35520,
			"target":34962
		},
		{
			"buffer":0,
			"byteLength":15492,
			"byteOffset":47360,
			"target":34963
		},
		{
			"buffer":0,
			"byteLength":48,
			"byteOffset":62852,
			"target":34962
		},
		{
			"buffer":0,
			"byteLength":48,
			"byteOffset":62900,
			"target":34962
		},
		{
			"buffer":0,
			"byteLength":32,
			"byteOffset":62948,
			"target":34962
		},
		{
			"buffer":0,
			"byteLength":12,
			"byteOffset":62980,
			"target":34963
		},
		{
			"buffer":0,
			"byteLength":205152,
			"byteOffset":62992,
			"target":34962
		},
		{
			"buffer":0,
			"byteLength":205152,
			"byteOffset":268144,
			"target":34962
		},
		{
			"buffer":0,
			"byteLength":136768,
			"byteOffset":473296,
			"target":34962
		},
		{
			"buffer":0,
			"byteLength":101562,
			"byteOffset":610064,
			"target":34963
		},
		{
			"buffer":0,
			"byteLength":291168,
			"byteOffset":711628,
			"target":34962
		},
		{
			"buffer":0,
			"byteLength":291168,
			"byteOffset":1002796,
			"target":34962
		},
		{
			"buffer":0,
			"byteLength":194112,
			"byteOffset":1293964,
			"target":34962
		},
		{
			"buffer":0,
			"byteLength":257856,
			"byteOffset":1488076,
			"target":34963
		},
		{
			"buffer":0,
			"byteLength":38880,
			"byteOffset":1745932,
			"target":34962
		},
		{
			"buffer":0,
			"byteLength":38880,
			"byteOffset":1784812,
			"target":34962
		},
		{
			"buffer":0,
			"byteLength":25920,
			"byteOffset":1823692,
			"target":34962
		},
		{
			"buffer":0,
			"byteLength":14580,
			"byteOffset":1849612,
			"target":34963
		},
		{
			"buffer":0,
			"byteLength":94884,
			"byteOffset":1864192,
			"target":34962
		},
		{
			"buffer":0,
			"byteLength":94884,
			"byteOffset":1959076,
			"target":34962
		},
		{
			"buffer":0,
			"byteLength":63256,
			"byteOffset":2053960,
			"target":34962
		},
		{
			"buffer":0,
			"byteLength":69888,
			"byteOffset":2117216,
			"target":34963
		},
		{
			"buffer":0,
			"byteLength":34764,
			"byteOffset":2187104,
			"target":34962
		},
		{
			"buffer":0,
			"byteLength":34764,
			"byteOffset":2221868,
			"target":34962
		},
		{
			"buffer":0,
			"byteLength":23176,
			"byteOffset":2256632,
			"target":34962
		},
		{
			"buffer":0,
			"byteLength":29952,
			"byteOffset":2279808,
			"target":34963
		},
		{
			"buffer":0,
			"byteLength":1120188,
			"byteOffset":2309760,
			"target":34962
		},
		{
			"buffer":0,
			"byteLength":1120188,
			"byteOffset":3429948,
			"target":34962
		},
		{
			"buffer":0,
			"byteLength":746792,
			"byteOffset":4550136,
			"target":34962
		},
		{
			"buffer":0,
			"byteLength":1955088,
			"byteOffset":5296928,
			"target":34963
		}
	],
	"samplers":[
		{
			"magFilter":9729,
			"minFilter":9987
		}
	],
	"buffers":[
		{
			"byteLength":7252016,
			"uri":"01.bin"
		}
	]
}
