{
	"asset":{
		"generator":"Khronos glTF Blender I/O v3.6.27",
		"version":"2.0"
	},
	"extensionsUsed":[
		"KHR_materials_specular",
		"KHR_materials_ior"
	],
	"scene":0,
	"scenes":[
		{
			"name":"Scene",
			"nodes":[
				0
			]
		}
	],
	"nodes":[
		{
			"mesh":0,
			"name":"GLTF_v2"
		}
	],
	"materials":[
		{
			"doubleSided":true,
			"name":"Red_Bell_uhriag3va.003",
			"normalTexture":{
				"index":0
			},
			"pbrMetallicRoughness":{
				"baseColorTexture":{
					"index":1
				},
				"metallicFactor":0,
				"roughnessFactor":0.5
			}
		},
		{
			"doubleSided":true,
			"name":"fan_1.002",
			"pbrMetallicRoughness":{
				"baseColorFactor":[
					0,
					0,
					0,
					1
				],
				"metallicFactor":0
			}
		},
		{
			"doubleSided":true,
			"name":"Firewood_umoibcnhw.002",
			"normalTexture":{
				"index":2
			},
			"pbrMetallicRoughness":{
				"baseColorTexture":{
					"index":3
				},
				"metallicFactor":0,
				"metallicRoughnessTexture":{
					"index":4
				}
			}
		},
		{
			"doubleSided":true,
			"name":"fan_2.002",
			"pbrMetallicRoughness":{
				"baseColorFactor":[
					0.024090999737381935,
					0.024090999737381935,
					0.024090999737381935,
					1
				],
				"metallicFactor":0,
				"roughnessFactor":0.14031803607940674
			}
		},
		{
			"doubleSided":true,
			"extensions":{
				"KHR_materials_specular":{
					"specularColorFactor":[
						1.0802851417497004,
						1.0802851417497004,
						1.0802851417497004
					]
				},
				"KHR_materials_ior":{
					"ior":1.4500000476837158
				}
			},
			"name":"fan_3.002",
			"pbrMetallicRoughness":{
				"baseColorFactor":[
					0.16616789996623993,
					0.16616789996623993,
					0.16616789996623993,
					1
				],
				"metallicFactor":0
			}
		}
	],
	"meshes":[
		{
			"name":"Aset_edible_vegetable_S_uhriag3va_LOD0.003",
			"primitives":[
				{
					"attributes":{
						"POSITION":0,
						"NORMAL":1,
						"TEXCOORD_0":2
					},
					"indices":3,
					"material":0
				},
				{
					"attributes":{
						"POSITION":4,
						"NORMAL":5,
						"TEXCOORD_0":6
					},
					"indices":7,
					"material":1
				},
				{
					"attributes":{
						"POSITION":8,
						"NORMAL":9,
						"TEXCOORD_0":10
					},
					"indices":11,
					"material":2
				},
				{
					"attributes":{
						"POSITION":12,
						"NORMAL":13,
						"TEXCOORD_0":14
					},
					"indices":15,
					"material":3
				},
				{
					"attributes":{
						"POSITION":16,
						"NORMAL":17,
						"TEXCOORD_0":18
					},
					"indices":19,
					"material":4
				}
			]
		}
	],
	"textures":[
		{
			"sampler":0,
			"source":0
		},
		{
			"sampler":0,
			"source":1
		},
		{
			"sampler":0,
			"source":2
		},
		{
			"sampler":0,
			"source":3
		},
		{
			"sampler":0,
			"source":4
		}
	],
	"images":[
		{
			"mimeType":"image/jpeg",
			"name":"uhriag3va_2K_Normal_LOD1",
			"uri":"uhriag3va_2K_Normal_LOD1.jpg"
		},
		{
			"mimeType":"image/jpeg",
			"name":"uhriag3va_2K_Albedo",
			"uri":"uhriag3va_2K_Albedo.jpg"
		},
		{
			"mimeType":"image/jpeg",
			"name":"umoibcnhw_2K_Normal_LOD4",
			"uri":"umoibcnhw_2K_Normal_LOD4.jpg"
		},
		{
			"mimeType":"image/jpeg",
			"name":"umoibcnhw_2K_Albedo_LOD4",
			"uri":"umoibcnhw_2K_Albedo_LOD4.jpg"
		},
		{
			"mimeType":"image/jpeg",
			"name":"umoibcnhw_2K_Roughness",
			"uri":"umoibcnhw_2K_Roughness.jpg"
		}
	],
	"accessors":[
		{
			"bufferView":0,
			"componentType":5126,
			"count":5121,
			"max":[
				0.14259716868400574,
				0.251778781414032,
				0.1495906561613083
			],
			"min":[
				-0.17605501413345337,
				-0.09427882730960846,
				-0.19899900257587433
			],
			"type":"VEC3"
		},
		{
			"bufferView":1,
			"componentType":5126,
			"count":5121,
			"type":"VEC3"
		},
		{
			"bufferView":2,
			"componentType":5126,
			"count":5121,
			"type":"VEC2"
		},
		{
			"bufferView":3,
			"componentType":5123,
			"count":28200,
			"type":"SCALAR"
		},
		{
			"bufferView":4,
			"componentType":5126,
			"count":2020,
			"max":[
				0.219935804605484,
				0.10717910528182983,
				0.10369018465280533
			],
			"min":[
				-0.17773300409317017,
				-0.29246559739112854,
				-0.08411819487810135
			],
			"type":"VEC3"
		},
		{
			"bufferView":5,
			"componentType":5126,
			"count":2020,
			"type":"VEC3"
		},
		{
			"bufferView":6,
			"componentType":5126,
			"count":2020,
			"type":"VEC2"
		},
		{
			"bufferView":7,
			"componentType":5123,
			"count":11928,
			"type":"SCALAR"
		},
		{
			"bufferView":8,
			"componentType":5126,
			"count":438,
			"max":[
				0.32644039392471313,
				0.25171804428100586,
				0.1253180354833603
			],
			"min":[
				-0.19024206697940826,
				-0.21973931789398193,
				-0.20428265631198883
			],
			"type":"VEC3"
		},
		{
			"bufferView":9,
			"componentType":5126,
			"count":438,
			"type":"VEC3"
		},
		{
			"bufferView":10,
			"componentType":5126,
			"count":438,
			"type":"VEC2"
		},
		{
			"bufferView":11,
			"componentType":5123,
			"count":2040,
			"type":"SCALAR"
		},
		{
			"bufferView":12,
			"componentType":5126,
			"count":577,
			"max":[
				0.18683697283267975,
				0.0678299069404602,
				0.08796604722738266
			],
			"min":[
				-0.15597043931484222,
				-0.2645570635795593,
				-0.06687585264444351
			],
			"type":"VEC3"
		},
		{
			"bufferView":13,
			"componentType":5126,
			"count":577,
			"type":"VEC3"
		},
		{
			"bufferView":14,
			"componentType":5126,
			"count":577,
			"type":"VEC2"
		},
		{
			"bufferView":15,
			"componentType":5123,
			"count":3186,
			"type":"SCALAR"
		},
		{
			"bufferView":16,
			"componentType":5126,
			"count":3602,
			"max":[
				0.23369966447353363,
				0.1230776309967041,
				0.11165248602628708
			],
			"min":[
				-0.19132553040981293,
				-0.30813291668891907,
				-0.09117413312196732
			],
			"type":"VEC3"
		},
		{
			"bufferView":17,
			"componentType":5126,
			"count":3602,
			"type":"VEC3"
		},
		{
			"bufferView":18,
			"componentType":5126,
			"count":3602,
			"type":"VEC2"
		},
		{
			"bufferView":19,
			"componentType":5123,
			"count":21768,
			"type":"SCALAR"
		}
	],
	"bufferViews":[
		{
			"buffer":0,
			"byteLength":61452,
			"byteOffset":0,
			"target":34962
		},
		{
			"buffer":0,
			"byteLength":61452,
			"byteOffset":61452,
			"target":34962
		},
		{
			"buffer":0,
			"byteLength":40968,
			"byteOffset":122904,
			"target":34962
		},
		{
			"buffer":0,
			"byteLength":56400,
			"byteOffset":163872,
			"target":34963
		},
		{
			"buffer":0,
			"byteLength":24240,
			"byteOffset":220272,
			"target":34962
		},
		{
			"buffer":0,
			"byteLength":24240,
			"byteOffset":244512,
			"target":34962
		},
		{
			"buffer":0,
			"byteLength":16160,
			"byteOffset":268752,
			"target":34962
		},
		{
			"buffer":0,
			"byteLength":23856,
			"byteOffset":284912,
			"target":34963
		},
		{
			"buffer":0,
			"byteLength":5256,
			"byteOffset":308768,
			"target":34962
		},
		{
			"buffer":0,
			"byteLength":5256,
			"byteOffset":314024,
			"target":34962
		},
		{
			"buffer":0,
			"byteLength":3504,
			"byteOffset":319280,
			"target":34962
		},
		{
			"buffer":0,
			"byteLength":4080,
			"byteOffset":322784,
			"target":34963
		},
		{
			"buffer":0,
			"byteLength":6924,
			"byteOffset":326864,
			"target":34962
		},
		{
			"buffer":0,
			"byteLength":6924,
			"byteOffset":333788,
			"target":34962
		},
		{
			"buffer":0,
			"byteLength":4616,
			"byteOffset":340712,
			"target":34962
		},
		{
			"buffer":0,
			"byteLength":6372,
			"byteOffset":345328,
			"target":34963
		},
		{
			"buffer":0,
			"byteLength":43224,
			"byteOffset":351700,
			"target":34962
		},
		{
			"buffer":0,
			"byteLength":43224,
			"byteOffset":394924,
			"target":34962
		},
		{
			"buffer":0,
			"byteLength":28816,
			"byteOffset":438148,
			"target":34962
		},
		{
			"buffer":0,
			"byteLength":43536,
			"byteOffset":466964,
			"target":34963
		}
	],
	"samplers":[
		{
			"magFilter":9729,
			"minFilter":9987
		}
	],
	"buffers":[
		{
			"byteLength":510500,
			"uri":"02.bin"
		}
	]
}
