{
	"asset":{
		"generator":"Khronos glTF Blender I/O v3.6.27",
		"version":"2.0"
	},
	"extensionsUsed":[
		"KHR_materials_ior"
	],
	"scene":0,
	"scenes":[
		{
			"name":"Scene",
			"nodes":[
				0
			]
		}
	],
	"nodes":[
		{
			"mesh":0,
			"name":"GLB_03"
		}
	],
	"materials":[
		{
			"doubleSided":true,
			"name":"Scorpion_Hadrurus_Arizonensis_1.001_Baked.001",
			"normalTexture":{
				"index":0
			},
			"pbrMetallicRoughness":{
				"baseColorTexture":{
					"index":1
				},
				"metallicFactor":0,
				"metallicRoughnessTexture":{
					"index":2
				}
			}
		},
		{
			"doubleSided":true,
			"extensions":{
				"KHR_materials_specular":{
					"specularColorFactor":[
						0,
						0,
						0
					]
				},
				"KHR_materials_ior":{
					"ior":1.4500000476837158
				}
			},
			"name":"wire_115115115.002",
			"pbrMetallicRoughness":{
				"baseColorFactor":[
					0.800000011920929,
					0.800000011920929,
					0.800000011920929,
					1
				],
				"metallicFactor":0
			}
		},
		{
			"doubleSided":true,
			"name":"primatives.002",
			"pbrMetallicRoughness":{
				"baseColorFactor":[
					0.54885333776474,
					0.3651023507118225,
					0.012532394379377365,
					1
				],
				"metallicFactor":0,
				"roughnessFactor":0
			}
		}
	],
	"meshes":[
		{
			"name":"Mesh.004",
			"primitives":[
				{
					"attributes":{
						"COLOR_0":0,
						"POSITION":1,
						"NORMAL":2,
						"TEXCOORD_0":3,
						"TEXCOORD_1":4
					},
					"indices":5,
					"material":0
				},
				{
					"attributes":{
						"COLOR_0":6,
						"POSITION":7,
						"NORMAL":8,
						"TEXCOORD_0":9,
						"TEXCOORD_1":10
					},
					"indices":11,
					"material":1
				},
				{
					"attributes":{
						"COLOR_0":12,
						"POSITION":13,
						"NORMAL":14,
						"TEXCOORD_0":15,
						"TEXCOORD_1":16
					},
					"indices":17,
					"material":2
				}
			]
		}
	],
	"textures":[
		{
			"sampler":0,
			"source":0
		},
		{
			"sampler":0,
			"source":1
		},
		{
			"sampler":0,
			"source":2
		}
	],
	"images":[
		{
			"mimeType":"image/jpeg",
			"name":"Scorpion_Hadrurus_Arizonensis_1",
			"uri":"Scorpion_Hadrurus_Arizonensis_1.jpg"
		},
		{
			"mimeType":"image/jpeg",
			"name":"Scorpion_Hadrurus_Arizonensis_1",
			"uri":"Scorpion_Hadrurus_Arizonensis_1-1.jpg"
		},
		{
			"mimeType":"image/jpeg",
			"name":"Scorpion_Hadrurus_Arizonensis_1",
			"uri":"Scorpion_Hadrurus_Arizonensis_1-2.jpg"
		}
	],
	"accessors":[
		{
			"bufferView":0,
			"componentType":5123,
			"count":5400,
			"normalized":true,
			"type":"VEC4"
		},
		{
			"bufferView":1,
			"componentType":5126,
			"count":5400,
			"max":[
				0.12480926513671875,
				0.19807714223861694,
				0.3086334466934204
			],
			"min":[
				-0.27682727575302124,
				-0.12140578031539917,
				-0.18838383257389069
			],
			"type":"VEC3"
		},
		{
			"bufferView":2,
			"componentType":5126,
			"count":5400,
			"type":"VEC3"
		},
		{
			"bufferView":3,
			"componentType":5126,
			"count":5400,
			"type":"VEC2"
		},
		{
			"bufferView":4,
			"componentType":5126,
			"count":5400,
			"type":"VEC2"
		},
		{
			"bufferView":5,
			"componentType":5123,
			"count":24180,
			"type":"SCALAR"
		},
		{
			"bufferView":6,
			"componentType":5123,
			"count":7721,
			"normalized":true,
			"type":"VEC4"
		},
		{
			"bufferView":7,
			"componentType":5126,
			"count":7721,
			"max":[
				0.22328320145606995,
				0.2282545268535614,
				0.26207679510116577
			],
			"min":[
				-0.17452538013458252,
				-0.24888861179351807,
				-0.11866495013237
			],
			"type":"VEC3"
		},
		{
			"bufferView":8,
			"componentType":5126,
			"count":7721,
			"type":"VEC3"
		},
		{
			"bufferView":9,
			"componentType":5126,
			"count":7721,
			"type":"VEC2"
		},
		{
			"bufferView":10,
			"componentType":5126,
			"count":7721,
			"type":"VEC2"
		},
		{
			"bufferView":11,
			"componentType":5123,
			"count":11808,
			"type":"SCALAR"
		},
		{
			"bufferView":12,
			"componentType":5123,
			"count":637,
			"normalized":true,
			"type":"VEC4"
		},
		{
			"bufferView":13,
			"componentType":5126,
			"count":637,
			"max":[
				0.22570285201072693,
				0.1910712718963623,
				0.1158282607793808
			],
			"min":[
				-0.19732597470283508,
				-0.1675078272819519,
				-0.16967682540416718
			],
			"type":"VEC3"
		},
		{
			"bufferView":14,
			"componentType":5126,
			"count":637,
			"type":"VEC3"
		},
		{
			"bufferView":15,
			"componentType":5126,
			"count":637,
			"type":"VEC2"
		},
		{
			"bufferView":16,
			"componentType":5126,
			"count":637,
			"type":"VEC2"
		},
		{
			"bufferView":17,
			"componentType":5123,
			"count":3456,
			"type":"SCALAR"
		}
	],
	"bufferViews":[
		{
			"buffer":0,
			"byteLength":43200,
			"byteOffset":0,
			"target":34962
		},
		{
			"buffer":0,
			"byteLength":64800,
			"byteOffset":43200,
			"target":34962
		},
		{
			"buffer":0,
			"byteLength":64800,
			"byteOffset":108000,
			"target":34962
		},
		{
			"buffer":0,
			"byteLength":43200,
			"byteOffset":172800,
			"target":34962
		},
		{
			"buffer":0,
			"byteLength":43200,
			"byteOffset":216000,
			"target":34962
		},
		{
			"buffer":0,
			"byteLength":48360,
			"byteOffset":259200,
			"target":34963
		},
		{
			"buffer":0,
			"byteLength":61768,
			"byteOffset":307560,
			"target":34962
		},
		{
			"buffer":0,
			"byteLength":92652,
			"byteOffset":369328,
			"target":34962
		},
		{
			"buffer":0,
			"byteLength":92652,
			"byteOffset":461980,
			"target":34962
		},
		{
			"buffer":0,
			"byteLength":61768,
			"byteOffset":554632,
			"target":34962
		},
		{
			"buffer":0,
			"byteLength":61768,
			"byteOffset":616400,
			"target":34962
		},
		{
			"buffer":0,
			"byteLength":23616,
			"byteOffset":678168,
			"target":34963
		},
		{
			"buffer":0,
			"byteLength":5096,
			"byteOffset":701784,
			"target":34962
		},
		{
			"buffer":0,
			"byteLength":7644,
			"byteOffset":706880,
			"target":34962
		},
		{
			"buffer":0,
			"byteLength":7644,
			"byteOffset":714524,
			"target":34962
		},
		{
			"buffer":0,
			"byteLength":5096,
			"byteOffset":722168,
			"target":34962
		},
		{
			"buffer":0,
			"byteLength":5096,
			"byteOffset":727264,
			"target":34962
		},
		{
			"buffer":0,
			"byteLength":6912,
			"byteOffset":732360,
			"target":34963
		}
	],
	"samplers":[
		{
			"magFilter":9729,
			"minFilter":9987
		}
	],
	"buffers":[
		{
			"byteLength":739272,
			"uri":"03.bin"
		}
	]
}
