<?xml version="1.0" standalone="no"?>
<!DOCTYPE svg PUBLIC "-//W3C//DTD SVG 20010904//EN"
 "http://www.w3.org/TR/2001/REC-SVG-20010904/DTD/svg10.dtd">
<svg version="1.0" xmlns="http://www.w3.org/2000/svg"
 width="256.000000pt" height="256.000000pt" viewBox="0 0 256.000000 256.000000"
 preserveAspectRatio="xMidYMid meet">
<metadata>
Created by potrace 1.14, written by Peter Selinger 2001-2017
</metadata>
<g transform="translate(0.000000,256.000000) scale(0.100000,-0.100000)"
fill="#000000" stroke="none">
<path d="M1228 2555 c-4 -4 -40 -9 -80 -11 -164 -7 -422 -98 -576 -203 -185
-125 -336 -298 -435 -497 -160 -319 -174 -709 -38 -1048 135 -338 440 -620
790 -730 263 -83 564 -79 813 10 186 67 337 163 478 304 229 229 345 489 375
835 11 130 -32 421 -69 465 -7 8 -13 26 -14 39 -1 29 -67 169 -114 243 -211
328 -577 555 -943 583 -27 2 -79 6 -115 10 -36 4 -68 4 -72 0z m412 -85 c13
-9 13 -10 0 -10 -8 0 -22 5 -30 10 -13 9 -13 10 0 10 8 0 22 -5 30 -10z m-140
-50 l25 -8 -25 0 c-14 0 -36 4 -50 8 l-25 8 25 0 c14 0 36 -4 50 -8z m60 -60
c12 -8 12 -10 -5 -9 -11 0 -29 4 -40 9 -18 8 -18 9 5 9 14 0 32 -4 40 -9z m75
-70 l20 -9 -20 0 c-11 0 -27 4 -35 9 -13 9 -13 10 0 9 8 0 24 -4 35 -9z m-765
-70 c0 -5 -4 -10 -9 -10 -6 0 -13 5 -16 10 -3 6 1 10 9 10 9 0 16 -4 16 -10z
m231 -8 c-7 -2 -18 1 -23 6 -8 8 -4 9 13 5 13 -4 18 -8 10 -11z m559 -7 c27
-13 52 -29 55 -35 4 -6 -20 3 -54 20 -34 16 -61 32 -61 35 0 9 10 5 60 -20z
m-105 5 c8 -13 -5 -13 -25 0 -13 8 -13 10 2 10 9 0 20 -4 23 -10z m365 -20 c0
-5 -7 -7 -15 -4 -8 4 -15 8 -15 10 0 2 7 4 15 4 8 0 15 -4 15 -10z m-345 -30
c3 -5 2 -10 -4 -10 -5 0 -13 5 -16 10 -3 6 -2 10 4 10 5 0 13 -4 16 -10z
m-385 -15 c19 -7 28 -13 20 -13 -8 0 -31 6 -50 13 -19 7 -28 13 -20 13 8 0 31
-6 50 -13z m-120 -27 c10 -6 3 -7 -20 -2 -19 3 -42 10 -50 16 -10 6 -3 7 20 2
19 -3 42 -10 50 -16z m-618 -30 c-7 -7 -12 -8 -12 -2 0 14 12 26 19 19 2 -3
-1 -11 -7 -17z m1164 7 c10 -8 14 -15 8 -15 -5 0 -19 7 -30 15 -10 8 -14 15
-8 15 5 0 19 -7 30 -15z m-1 -65 c3 -6 -1 -7 -9 -4 -18 7 -21 14 -7 14 6 0 13
-4 16 -10z m-937 -35 c-3 -3 -9 2 -12 12 -6 14 -5 15 5 6 7 -7 10 -15 7 -18z
m1573 8 c13 -16 12 -17 -3 -4 -10 7 -18 15 -18 17 0 8 8 3 21 -13z m-1078 0
c-7 -2 -19 -2 -25 0 -7 3 -2 5 12 5 14 0 19 -2 13 -5z m365 -30 c22 -21 13
-24 -19 -6 -45 27 -61 48 -23 31 16 -7 35 -18 42 -25z m-193 7 c3 -5 -3 -10
-14 -10 -12 0 -21 5 -21 10 0 6 6 10 14 10 8 0 18 -4 21 -10z m380 0 c8 -13
-5 -13 -25 0 -13 8 -13 10 2 10 9 0 20 -4 23 -10z m581 -41 c19 -22 19 -22 -3
-10 -24 12 -39 31 -25 31 5 0 17 -10 28 -21z m-531 -37 c-9 -9 -35 8 -35 24 0
16 2 16 20 -1 11 -10 18 -20 15 -23z m-105 -15 c0 -4 -9 -3 -20 3 -11 6 -20
15 -20 20 0 6 9 5 20 -2 11 -7 20 -16 20 -21z m-320 19 c0 -11 -19 -15 -25 -6
-3 5 1 10 9 10 9 0 16 -2 16 -4z m595 -16 c3 -5 2 -10 -4 -10 -5 0 -13 5 -16
10 -3 6 -2 10 4 10 5 0 13 -4 16 -10z m-290 -31 c11 -17 2 -18 -19 -3 -17 12
-17 14 -4 14 9 0 20 -5 23 -11z m724 -19 c12 -18 13 -22 2 -19 -8 3 -21 16
-30 29 -12 18 -13 22 -2 19 8 -3 21 -16 30 -29z m-1952 -82 c-3 -8 -6 -5 -6 6
-1 11 2 17 5 13 3 -3 4 -12 1 -19z m-250 -10 c-3 -8 -6 -5 -6 6 -1 11 2 17 5
13 3 -3 4 -12 1 -19z m90 -45 c-2 -16 -4 -5 -4 22 0 28 2 40 4 28 2 -13 2 -35
0 -50z m394 15 c5 -10 6 -18 1 -18 -7 0 -28 34 -40 65 -5 13 27 -25 39 -47z
m-301 -4 c0 -8 -4 -12 -10 -9 -5 3 -10 13 -10 21 0 8 5 12 10 9 6 -3 10 -13
10 -21z m550 6 c0 -11 -2 -20 -4 -20 -2 0 -6 9 -9 20 -3 11 -1 20 4 20 5 0 9
-9 9 -20z m1135 -10 c8 -13 -5 -13 -25 0 -13 8 -13 10 2 10 9 0 20 -4 23 -10z
m175 -33 c0 -6 -9 -2 -20 8 -11 10 -20 23 -20 28 0 6 9 2 20 -8 11 -10 20 -23
20 -28z m-820 3 c8 -5 11 -10 5 -10 -5 0 -17 5 -25 10 -8 5 -10 10 -5 10 6 0
17 -5 25 -10z m-960 -42 c0 -6 -7 -5 -15 2 -8 7 -15 17 -15 22 0 6 7 5 15 -2
8 -7 15 -17 15 -22z m1573 5 c-7 -2 -19 -2 -25 0 -7 3 -2 5 12 5 14 0 19 -2
13 -5z m-1753 -25 c0 -16 -3 -19 -11 -11 -6 6 -8 16 -5 22 11 17 16 13 16 -11z
m1049 1 c86 -10 149 -31 163 -52 4 -7 8 -31 8 -54 0 -36 -3 -43 -20 -43 -13 0
-20 7 -20 20 0 56 -93 81 -222 60 -65 -11 -77 -17 -111 -52 -48 -50 -55 -69
-63 -166 -12 -150 38 -241 165 -301 48 -22 68 -25 144 -24 96 2 105 -3 93 -53
l-7 -27 -122 7 c-180 10 -216 19 -265 67 -78 78 -103 180 -85 347 13 112 32
158 90 214 69 67 107 76 252 57z m478 5 c-3 -3 -12 -4 -19 -1 -8 3 -5 6 6 6
11 1 17 -2 13 -5z m-1430 -36 c-3 -7 -5 -2 -5 12 0 14 2 19 5 13 2 -7 2 -19 0
-25z m463 4 c21 -11 43 -34 58 -62 21 -40 23 -55 20 -130 -5 -112 -26 -156
-92 -189 -32 -17 -72 -27 -120 -30 l-71 -6 -3 -40 c-1 -22 1 -71 5 -110 l8
-70 39 -5 c22 -3 41 -10 43 -17 6 -18 -50 -25 -157 -19 -83 5 -95 8 -95 23 0
12 12 21 37 27 20 5 39 14 41 20 6 16 -10 537 -17 543 -3 3 -20 8 -38 12 -26
5 -33 12 -33 31 0 44 33 51 195 45 107 -4 154 -10 180 -23z m1070 14 c0 -11
-19 -15 -25 -6 -3 5 1 10 9 10 9 0 16 -2 16 -4z m12 -25 c158 -23 182 -36 226
-122 32 -62 34 -71 33 -165 -2 -200 -60 -286 -226 -331 -60 -16 -336 -39 -360
-30 -25 10 -15 50 17 65 16 7 32 22 38 32 7 12 9 112 8 267 l-3 248 -37 3
c-34 3 -55 23 -43 42 9 15 221 9 347 -9z m-1595 -63 c-2 -13 -4 -5 -4 17 -1
22 1 32 4 23 2 -10 2 -28 0 -40z m-240 -10 c-3 -8 -6 -5 -6 6 -1 11 2 17 5 13
3 -3 4 -12 1 -19z m2163 -16 c0 -15 -2 -15 -10 -2 -13 20 -13 33 0 25 6 -3 10
-14 10 -23z m-2053 -4 c-3 -8 -6 -5 -6 6 -1 11 2 17 5 13 3 -3 4 -12 1 -19z
m60 -20 c-3 -7 -5 -2 -5 12 0 14 2 19 5 13 2 -7 2 -19 0 -25z m-127 -18 c0 -5
-4 -10 -10 -10 -5 0 -10 5 -10 10 0 6 5 10 10 10 6 0 10 -4 10 -10z m35 0 c3
-5 1 -10 -4 -10 -6 0 -11 5 -11 10 0 6 2 10 4 10 3 0 8 -4 11 -10z m252 -42
c-3 -8 -6 -5 -6 6 -1 11 2 17 5 13 3 -3 4 -12 1 -19z m-228 -48 c0 -23 -1 -23
-9 -5 -5 11 -9 29 -9 40 -1 17 1 17 9 5 5 -8 9 -26 9 -40z m1352 -13 c-8 -8
-11 -3 -11 19 1 25 2 27 11 11 8 -14 8 -22 0 -30z m96 11 c-3 -8 -6 -5 -6 6
-1 11 2 17 5 13 3 -3 4 -12 1 -19z m-1130 -10 c-3 -8 -6 -5 -6 6 -1 11 2 17 5
13 3 -3 4 -12 1 -19z m-227 -9 c0 -6 -4 -7 -10 -4 -5 3 -10 11 -10 16 0 6 5 7
10 4 6 -3 10 -11 10 -16z m-203 -21 c-3 -8 -6 -5 -6 6 -1 11 2 17 5 13 3 -3 4
-12 1 -19z m333 -4 c0 -8 -4 -12 -10 -9 -5 3 -10 10 -10 16 0 5 5 9 10 9 6 0
10 -7 10 -16z m87 -16 c-3 -7 -5 -2 -5 12 0 14 2 19 5 13 2 -7 2 -19 0 -25z
m1736 -18 c-3 -12 -8 -19 -11 -16 -5 6 5 36 12 36 2 0 2 -9 -1 -20z m-1848
-10 c3 -5 1 -10 -4 -10 -6 0 -11 5 -11 10 0 6 2 10 4 10 3 0 8 -4 11 -10z m85
-79 c-7 -11 -9 -3 -9 29 1 42 1 43 9 16 6 -17 5 -36 0 -45z m-400 16 c0 -18
-2 -19 -10 -7 -13 20 -13 43 0 35 6 -3 10 -16 10 -28z m427 -69 c-2 -18 -4 -4
-4 32 0 36 2 50 4 33 2 -18 2 -48 0 -65z m-239 57 c-3 -3 -9 2 -12 12 -6 14
-5 15 5 6 7 -7 10 -15 7 -18z m-194 -81 c3 -8 2 -12 -4 -9 -6 3 -10 10 -10 16
0 14 7 11 14 -7z m411 -50 c-13 -15 -20 29 -9 54 6 13 9 10 13 -13 4 -16 2
-35 -4 -41z m-84 3 c-18 -18 -25 2 -10 30 14 26 14 26 17 4 2 -13 -1 -28 -7
-34z m556 1 c-2 -13 -4 -5 -4 17 -1 22 1 32 4 23 2 -10 2 -28 0 -40z m-827 -1
c0 -24 -3 -28 -10 -17 -13 20 -13 63 0 55 6 -3 10 -21 10 -38z m2307 6 c-3
-10 -5 -4 -5 12 0 17 2 24 5 18 2 -7 2 -21 0 -30z m-1987 -1 c-6 -2 -10 -11
-10 -20 0 -15 -2 -15 -10 -2 -5 8 -10 22 -10 30 0 13 1 13 10 0 8 -12 10 -12
10 5 0 17 2 17 10 5 6 -10 6 -16 0 -18z m-196 -72 c7 -24 6 -24 -8 -6 -9 11
-16 27 -16 35 0 21 16 2 24 -29z m653 -72 c-2 -18 -4 -6 -4 27 0 33 2 48 4 33
2 -15 2 -42 0 -60z m30 -30 c-3 -7 -5 -2 -5 12 0 14 2 19 5 13 2 -7 2 -19 0
-25z m980 26 c-3 -3 -12 -4 -19 -1 -8 3 -5 6 6 6 11 1 17 -2 13 -5z m248 -4
c-3 -5 -15 -10 -26 -10 -11 0 -17 5 -14 10 3 6 15 10 26 10 11 0 17 -4 14 -10z
m55 -60 c11 -7 6 -10 -20 -10 -26 0 -31 3 -20 10 8 5 17 10 20 10 3 0 12 -5
20 -10z m-2010 -21 c0 -6 -4 -7 -10 -4 -5 3 -10 11 -10 16 0 6 5 7 10 4 6 -3
10 -11 10 -16z m525 2 c3 -5 1 -12 -5 -16 -5 -3 -10 1 -10 9 0 18 6 21 15 7z
m1010 -1 c3 -5 -3 -10 -15 -10 -12 0 -18 5 -15 10 3 6 10 10 15 10 5 0 12 -4
15 -10z m395 6 c0 -2 -7 -6 -15 -10 -8 -3 -15 -1 -15 4 0 6 7 10 15 10 8 0 15
-2 15 -4z m-331 -15 c11 -7 5 -11 -23 -16 -20 -4 -40 -5 -43 -1 -4 3 3 6 15 6
12 0 22 5 22 10 0 12 10 13 29 1z m418 -7 c-3 -3 -12 -4 -19 -1 -8 3 -5 6 6 6
11 1 17 -2 13 -5z m-784 -11 c-7 -2 -19 -2 -25 0 -7 3 -2 5 12 5 14 0 19 -2
13 -5z m-713 -23 c-20 -13 -43 -13 -35 0 3 6 16 10 28 10 18 0 19 -2 7 -10z
m-300 -45 c0 -8 -2 -15 -4 -15 -2 0 -6 7 -10 15 -3 8 -1 15 4 15 6 0 10 -7 10
-15z m-221 -60 c0 -5 -4 -3 -9 5 -5 8 -9 22 -9 30 0 16 17 -16 18 -35z m60 -7
c5 -13 7 -25 4 -28 -5 -6 -33 30 -33 42 0 17 21 7 29 -14z m99 -4 c7 -14 8
-23 2 -19 -15 9 -32 45 -22 45 5 0 14 -12 20 -26z m442 6 c13 -9 13 -10 0 -9
-8 1 -26 5 -40 9 l-25 8 25 1 c14 0 32 -4 40 -9z m507 -6 c-3 -3 -12 -4 -19
-1 -8 3 -5 6 6 6 11 1 17 -2 13 -5z m196 -51 c-7 -2 -19 -2 -25 0 -7 3 -2 5
12 5 14 0 19 -2 13 -5z m762 -3 c-3 -5 -14 -10 -23 -10 -15 0 -15 2 -2 10 20
13 33 13 25 0z m-1831 -66 c5 -14 4 -15 -9 -4 -17 14 -19 20 -6 20 5 0 12 -7
15 -16z m30 -40 c5 -14 4 -15 -9 -4 -17 14 -19 20 -6 20 5 0 12 -7 15 -16z
m1219 -11 c-7 -2 -19 -2 -25 0 -7 3 -2 5 12 5 14 0 19 -2 13 -5z m39 -25 c-6
-6 -15 -8 -19 -4 -4 4 -1 11 7 16 19 12 27 3 12 -12z m-17 -68 c-3 -5 -16 -10
-28 -9 -21 0 -21 1 -2 9 28 12 37 12 30 0z m15 -120 c-8 -5 -22 -10 -30 -10
-13 0 -13 1 0 10 8 5 22 10 30 10 13 0 13 -1 0 -10z m60 -20 c11 -7 4 -10 -25
-10 -29 0 -36 3 -25 10 8 5 20 10 25 10 6 0 17 -5 25 -10z m-610 -40 c13 -9
13 -10 0 -10 -8 0 -22 5 -30 10 -13 9 -13 10 0 10 8 0 22 -5 30 -10z m448 -7
c-10 -2 -28 -2 -40 0 -13 2 -5 4 17 4 22 1 32 -1 23 -4z m-465 -30 c-7 -2 -19
-2 -25 0 -7 3 -2 5 12 5 14 0 19 -2 13 -5z m277 -3 c-20 -13 -50 -13 -50 0 0
6 15 10 33 10 24 0 28 -3 17 -10z m230 -10 c0 -5 -8 -10 -17 -10 -15 0 -16 2
-3 10 19 12 20 12 20 0z m-93 -6 c-3 -3 -12 -4 -19 -1 -8 3 -5 6 6 6 11 1 17
-2 13 -5z m-30 -80 c-3 -3 -12 -4 -19 -1 -8 3 -5 6 6 6 11 1 17 -2 13 -5z m6
-51 c-7 -2 -19 -2 -25 0 -7 3 -2 5 12 5 14 0 19 -2 13 -5z m-313 -13 c0 -5 -4
-10 -10 -10 -5 0 -10 5 -10 10 0 6 5 10 10 10 6 0 10 -4 10 -10z"/>
<path d="M605 1527 c-3 -7 -4 -69 -3 -138 l3 -124 54 2 c117 5 165 42 164 124
-1 85 -51 130 -161 143 -39 5 -54 3 -57 -7z m133 -68 c-3 -8 -7 -3 -11 10 -4
17 -3 21 5 13 5 -5 8 -16 6 -23z"/>
<path d="M1727 1503 c-9 -9 -9 -445 1 -459 5 -7 44 -8 118 -4 101 5 115 8 147
33 44 33 70 76 91 146 43 146 -10 237 -159 276 -60 15 -186 21 -198 8z"/>
</g>
</svg>
