{
	"asset":{
		"generator":"Khronos glTF Blender I/O v3.6.27",
		"version":"2.0"
	},
	"scene":0,
	"scenes":[
		{
			"name":"Scene",
			"nodes":[
				0,
				1,
				2
			]
		}
	],
	"nodes":[
		{
			"mesh":0,
			"name":"crab_nebula.002"
		},
		{
			"mesh":1,
			"name":"Aset_container_box_S_uewlfg2va_00_LOD2.002"
		},
		{
			"mesh":2,
			"name":"_7wi8_Var4_LOD0.001"
		}
	],
	"materials":[
		{
			"doubleSided":true,
			"name":"lambert1.002",
			"pbrMetallicRoughness":{
				"baseColorFactor":[
					0.26871687173843384,
					0.26786378026008606,
					0.28300654888153076,
					1
				],
				"metallicFactor":0
			}
		},
		{
			"doubleSided":true,
			"name":"Cardboard_Boxes_uewlfg2va.002",
			"normalTexture":{
				"index":0
			},
			"pbrMetallicRoughness":{
				"baseColorTexture":{
					"index":1
				},
				"metallicFactor":0,
				"metallicRoughnessTexture":{
					"index":2
				}
			}
		},
		{
			"doubleSided":true,
			"name":"Aloe_Vera_ve4tbbrha.001",
			"normalTexture":{
				"index":3
			},
			"pbrMetallicRoughness":{
				"baseColorTexture":{
					"index":4
				},
				"metallicFactor":0,
				"metallicRoughnessTexture":{
					"index":5
				}
			}
		}
	],
	"meshes":[
		{
			"name":"Mesh.002",
			"primitives":[
				{
					"attributes":{
						"POSITION":0,
						"NORMAL":1
					},
					"indices":2,
					"material":0
				}
			]
		},
		{
			"name":"Aset_container_box_S_uewlfg2va_00_LOD2.001",
			"primitives":[
				{
					"attributes":{
						"POSITION":3,
						"NORMAL":4,
						"TEXCOORD_0":5
					},
					"indices":6,
					"material":1
				}
			]
		},
		{
			"name":"_7wi8_Var4_LOD0.002",
			"primitives":[
				{
					"attributes":{
						"COLOR_0":7,
						"POSITION":8,
						"NORMAL":9,
						"TEXCOORD_0":10,
						"TEXCOORD_1":11
					},
					"indices":12,
					"material":2
				}
			]
		}
	],
	"textures":[
		{
			"sampler":0,
			"source":0
		},
		{
			"sampler":0,
			"source":1
		},
		{
			"sampler":0,
			"source":2
		},
		{
			"sampler":0,
			"source":3
		},
		{
			"sampler":0,
			"source":4
		},
		{
			"sampler":0,
			"source":5
		}
	],
	"images":[
		{
			"mimeType":"image/jpeg",
			"name":"uewlfg2va_2K_Normal_LOD2",
			"uri":"uewlfg2va_2K_Normal_LOD2.jpg"
		},
		{
			"mimeType":"image/jpeg",
			"name":"uewlfg2va_2K_Albedo",
			"uri":"uewlfg2va_2K_Albedo.jpg"
		},
		{
			"mimeType":"image/jpeg",
			"name":"uewlfg2va_2K_Roughness",
			"uri":"uewlfg2va_2K_Roughness.jpg"
		},
		{
			"mimeType":"image/jpeg",
			"name":"ve4tbbrha_2K_Normal",
			"uri":"ve4tbbrha_2K_Normal.jpg"
		},
		{
			"mimeType":"image/jpeg",
			"name":"ve4tbbrha_2K_Albedo",
			"uri":"ve4tbbrha_2K_Albedo.jpg"
		},
		{
			"mimeType":"image/jpeg",
			"name":"ve4tbbrha_2K_Roughness",
			"uri":"ve4tbbrha_2K_Roughness.jpg"
		}
	],
	"accessors":[
		{
			"bufferView":0,
			"componentType":5126,
			"count":116966,
			"max":[
				0.18617354333400726,
				0.38099735975265503,
				0.15536069869995117
			],
			"min":[
				-0.15120555460453033,
				-0.21403782069683075,
				-0.136763334274292
			],
			"type":"VEC3"
		},
		{
			"bufferView":1,
			"componentType":5126,
			"count":116966,
			"type":"VEC3"
		},
		{
			"bufferView":2,
			"componentType":5125,
			"count":700098,
			"type":"SCALAR"
		},
		{
			"bufferView":3,
			"componentType":5126,
			"count":1298,
			"max":[
				0.2689756751060486,
				0.18495456874370575,
				0.160092294216156
			],
			"min":[
				-0.06276507675647736,
				-0.14704786241054535,
				-0.1971619427204132
			],
			"type":"VEC3"
		},
		{
			"bufferView":4,
			"componentType":5126,
			"count":1298,
			"type":"VEC3"
		},
		{
			"bufferView":5,
			"componentType":5126,
			"count":1298,
			"type":"VEC2"
		},
		{
			"bufferView":6,
			"componentType":5123,
			"count":6402,
			"type":"SCALAR"
		},
		{
			"bufferView":7,
			"componentType":5123,
			"count":58366,
			"normalized":true,
			"type":"VEC4"
		},
		{
			"bufferView":8,
			"componentType":5126,
			"count":58366,
			"max":[
				0.07976236939430237,
				0.33648252487182617,
				0.2397824227809906
			],
			"min":[
				-0.3377484083175659,
				-0.24269436299800873,
				-0.30061301589012146
			],
			"type":"VEC3"
		},
		{
			"bufferView":9,
			"componentType":5126,
			"count":58366,
			"type":"VEC3"
		},
		{
			"bufferView":10,
			"componentType":5126,
			"count":58366,
			"type":"VEC2"
		},
		{
			"bufferView":11,
			"componentType":5126,
			"count":58366,
			"type":"VEC2"
		},
		{
			"bufferView":12,
			"componentType":5123,
			"count":295596,
			"type":"SCALAR"
		}
	],
	"bufferViews":[
		{
			"buffer":0,
			"byteLength":1403592,
			"byteOffset":0,
			"target":34962
		},
		{
			"buffer":0,
			"byteLength":1403592,
			"byteOffset":1403592,
			"target":34962
		},
		{
			"buffer":0,
			"byteLength":2800392,
			"byteOffset":2807184,
			"target":34963
		},
		{
			"buffer":0,
			"byteLength":15576,
			"byteOffset":5607576,
			"target":34962
		},
		{
			"buffer":0,
			"byteLength":15576,
			"byteOffset":5623152,
			"target":34962
		},
		{
			"buffer":0,
			"byteLength":10384,
			"byteOffset":5638728,
			"target":34962
		},
		{
			"buffer":0,
			"byteLength":12804,
			"byteOffset":5649112,
			"target":34963
		},
		{
			"buffer":0,
			"byteLength":466928,
			"byteOffset":5661916,
			"target":34962
		},
		{
			"buffer":0,
			"byteLength":700392,
			"byteOffset":6128844,
			"target":34962
		},
		{
			"buffer":0,
			"byteLength":700392,
			"byteOffset":6829236,
			"target":34962
		},
		{
			"buffer":0,
			"byteLength":466928,
			"byteOffset":7529628,
			"target":34962
		},
		{
			"buffer":0,
			"byteLength":466928,
			"byteOffset":7996556,
			"target":34962
		},
		{
			"buffer":0,
			"byteLength":591192,
			"byteOffset":8463484,
			"target":34963
		}
	],
	"samplers":[
		{
			"magFilter":9729,
			"minFilter":9987
		}
	],
	"buffers":[
		{
			"byteLength":9054676,
			"uri":"05.bin"
		}
	]
}
